<svg width="519" height="512" viewBox="0 0 519 512" fill="none" xmlns="http://www.w3.org/2000/svg">
  <defs>
    <path id="path_1" d="M0 256C0 114.615 114.615 0 256 0C397.385 0 512 114.615 512 256C512 397.385 397.385 512 256 512C114.615 512 0 397.385 0 256Z"/>
    <radialGradient id="gradient_2" gradientUnits="userSpaceOnUse" cx="0" cy="0" r="1" gradientTransform="matrix(0 256 -256 0 256 256)">
      <stop offset="0" stop-color="#6B5539" stop-opacity="0.6"/>
      <stop offset="1" stop-color="#000000"/>
    </radialGradient>
    <clipPath id="clip_path_3">
      <rect width="512" height="512"/>
    </clipPath>
  </defs>
  <g>
    <g transform="translate(7 0)">
      <use fill="#0F0F0F" fill-rule="evenodd"/>
      <use fill="url(#gradient_2)" fill-rule="evenodd"/>
      <path d="M256 0C114.615 0 0 114.615 0 256C0 397.385 114.615 512 256 512C397.385 512 512 397.385 512 256C512 114.615 397.385 0 256 0ZM27.4858 352.53Q7.99998 306.461 7.99997 256Q8 205.539 27.4858 159.47Q46.3094 114.966 80.6375 80.6375Q114.966 46.3093 159.47 27.4858Q205.539 7.99997 256 7.99997Q306.461 8 352.53 27.4858Q397.034 46.3094 431.362 80.6375Q465.691 114.966 484.514 159.47Q504 205.539 504 256Q504 306.461 484.514 352.53Q465.691 397.034 431.362 431.362Q397.034 465.691 352.53 484.514Q306.461 504 256 504Q205.539 504 159.47 484.514Q114.966 465.69 80.6375 431.362Q46.3093 397.034 27.4858 352.53Z" fill="#B8963E" fill-rule="evenodd"/>
    </g>
    <path d="M99.505 117.827L94.2618 117.827L64.4432 45.6351Q61.9026 39.7075 60.3363 35.1511L62.405 34.44L64.5738 34.7254L63.1738 45.3654L51.4059 123.007L40.0904 123.007L57.3264 17.6925L64.5578 17.6925L96.3413 93.2316L94.325 94.08L96.3127 93.1667Q98.7551 98.4825 100.198 103.246L98.105 103.88L95.9946 103.304Q96.4675 101.57 100.475 93.269L135.915 17.6925L142.967 17.6925L158.888 123.007L147.449 123.007L136.26 45.111Q135.117 37.8305 135.117 34.02L137.305 34.02L138.852 35.5668Q139.05 35.3689 139.054 35.3589Q138.921 35.6404 138.698 36.1829Q138.199 37.3934 137 40.1441L134.54 45.8371L100.897 117.827L99.505 117.827ZM99.505 113.452L99.505 115.64L97.5232 114.714L130.563 44.0139L132.545 44.94L130.537 44.0723L132.99 38.3959Q134.171 35.6868 134.652 34.5171Q135.309 32.9226 135.758 32.4732L139.492 28.7389L139.492 34.02Q139.492 37.4895 140.59 44.489L151.51 120.509L149.345 120.82L149.345 118.632L156.345 118.632L156.345 120.82L154.182 121.147L138.922 20.207L141.085 19.88L141.085 22.0675L137.305 22.0675L137.305 19.88L139.286 20.8087L104.415 95.171Q100.582 103.11 100.215 104.456L98.2156 111.788L96.0115 104.514Q94.6548 100.037 92.3373 94.9933L92.3224 94.9611L61.0887 20.7284L63.105 19.88L63.105 22.0675L59.185 22.0675L59.185 19.88L61.3438 20.2333L44.8238 121.173L42.665 120.82L42.665 118.632L49.525 118.632L49.525 120.82L47.3622 120.492L58.8362 44.7946L60.2362 34.1546L64.4737 33.7289Q65.9874 38.1326 68.4868 43.9649L97.7468 114.805L95.725 115.64L95.725 113.452L99.505 113.452ZM99.505 115.64L95.725 115.64L66.465 44.8Q63.945 38.92 62.405 34.44L61.005 45.08L49.525 120.82L42.665 120.82L59.185 19.88L63.105 19.88L94.325 94.08Q96.705 99.26 98.105 103.88Q98.525 102.34 102.445 94.22L137.305 19.88L141.085 19.88L156.345 120.82L149.345 120.82L138.425 44.8Q137.305 37.66 137.305 34.02Q137.165 34.16 136.675 35.35Q136.185 36.54 134.995 39.27Q133.805 42 132.545 44.94L99.505 115.64ZM226.765 27.3875Q209.412 27.3875 198.445 39.8079Q187.372 52.3476 187.372 70.63Q187.372 88.8407 199.9 101.501Q212.418 114.152 230.405 114.152Q246.209 114.152 256.586 109.84L257.425 111.86L255.238 111.86L255.238 68.5125L266.332 68.5125L266.332 116.157L265.299 116.799Q252.589 124.688 230.055 124.688Q207.242 124.688 191.482 109Q175.717 93.3091 175.717 70.63Q175.717 48.0067 190.015 32.4688Q204.385 16.8525 226.765 16.8525Q243.912 16.8525 261.462 22.5597L263.541 23.2361L260.384 32.9497L258.336 32.3352Q241.844 27.3875 226.765 27.3875ZM226.765 23.0125Q242.486 23.0125 259.594 28.1448L258.965 30.24L256.885 29.5639L258.705 23.9639L260.785 24.64L260.108 26.7203Q243.218 21.2275 226.765 21.2275Q206.305 21.2275 193.235 35.4312Q180.092 49.7133 180.092 70.63Q180.092 91.491 194.568 105.9Q209.048 120.313 230.055 120.313Q251.341 120.313 262.991 113.081L264.145 114.94L261.957 114.94L261.957 70.7L264.145 70.7L264.145 72.8875L257.425 72.8875L257.425 70.7L259.612 70.7L259.612 113.32L258.264 113.88Q247.081 118.527 230.405 118.527Q210.592 118.528 196.79 104.579Q182.997 90.6393 182.997 70.63Q182.997 50.6925 195.165 36.9121Q207.438 23.0125 226.765 23.0125ZM226.765 25.2Q208.425 25.2 196.805 38.36Q185.185 51.52 185.185 70.63Q185.185 89.74 198.345 103.04Q211.505 116.34 230.405 116.34Q246.645 116.34 257.425 111.86L257.425 70.7L264.145 70.7L264.145 114.94Q251.965 122.5 230.055 122.5Q208.145 122.5 193.025 107.45Q177.905 92.4 177.905 70.63Q177.905 48.86 191.625 33.95Q205.345 19.04 226.765 19.04Q243.565 19.04 260.785 24.64L258.965 30.24Q242.165 25.2 226.765 25.2ZM305.313 109.01Q290.797 93.3999 290.797 70.7Q290.797 47.9971 305.317 32.4566Q319.895 16.8525 342.125 16.8525Q364.352 16.8525 379 32.4526Q393.593 47.994 393.592 70.7Q393.592 84.0757 388.129 95.5129Q382.654 106.973 373.003 114.431L371.665 112.7L372.797 110.828Q401.296 128.067 416.613 133.31Q434.748 139.492 449.225 139.492Q457.543 139.492 468.245 137.297Q478.884 135.115 483.387 132.863L485.462 131.826L488.86 139.755L487.043 140.686Q481.346 143.608 469.818 146.329Q458.3 149.048 449.225 149.048Q440.167 149.048 430.065 146.826Q420.08 144.631 412.897 142.213Q405.688 139.786 395.057 134.542Q384.499 129.333 379.893 126.711L365.117 118.238L366.205 116.34L367.269 118.251Q355.713 124.688 342.125 124.688Q319.892 124.688 305.313 109.01ZM308.517 106.03Q321.798 120.313 342.125 120.313Q354.577 120.313 365.141 114.429L366.221 113.827L382.057 122.909Q386.551 125.467 396.993 130.618Q407.362 135.734 414.293 138.067Q421.251 140.409 431.005 142.554Q440.643 144.673 449.225 144.673Q457.79 144.673 468.813 142.071Q479.824 139.472 485.047 136.794L486.045 138.74L484.034 139.602L482.354 135.682L484.365 134.82L485.343 136.777Q480.326 139.285 469.125 141.583Q457.987 143.867 449.225 143.867Q434.022 143.867 415.197 137.45Q399.434 132.053 370.533 114.572L367.802 112.92L370.327 110.969Q379.156 104.147 384.181 93.6271Q389.217 83.0844 389.217 70.7Q389.218 49.7261 375.81 35.4474Q362.458 21.2275 342.125 21.2275Q321.795 21.2275 308.513 35.4434Q295.172 49.7228 295.172 70.7Q295.172 91.6801 308.517 106.03ZM313.521 39.7422Q302.452 52.2109 302.452 70.7Q302.453 89.1887 313.59 101.727Q324.628 114.152 342.125 114.152Q351.689 114.152 359.347 110.323L360.325 112.28L359.095 114.089Q342.152 102.567 332.745 102.567Q327.026 102.567 323.61 104.519L321.682 105.621L317.404 97.8666L319.06 96.7475Q324.795 92.8725 333.025 92.8725Q341.08 92.8725 349.157 96.7257Q356.935 100.436 367.01 107.248L365.785 109.06L364.519 107.276Q372.737 101.444 377.322 91.8747Q381.937 82.243 381.938 70.7Q381.938 52.2146 370.803 39.7471Q359.766 27.3875 342.125 27.3875Q324.488 27.3875 313.521 39.7422ZM310.249 36.8378Q322.522 23.0126 342.125 23.0125Q361.724 23.0125 374.067 36.8329Q386.313 50.5454 386.313 70.7Q386.313 83.2371 381.268 93.7653Q376.193 104.356 367.051 110.844L365.815 111.721L364.56 110.872Q354.755 104.244 347.273 100.674Q340.09 97.2475 333.025 97.2475Q326.135 97.2475 321.51 100.373L320.285 98.56L322.2 97.5033L324.44 101.563L322.525 102.62L321.44 100.721Q325.864 98.1925 332.745 98.1925Q343.498 98.1925 361.555 110.471L364.639 112.568L361.303 114.237Q352.721 118.527 342.125 118.527Q322.662 118.527 310.32 104.633Q298.078 90.8513 298.077 70.7Q298.078 50.5492 310.249 36.8378ZM306.915 107.52Q292.985 92.54 292.985 70.7Q292.985 48.86 306.915 33.95Q320.845 19.04 342.125 19.04Q363.405 19.04 377.405 33.95Q391.405 48.86 391.405 70.7Q391.405 83.58 386.155 94.57Q380.905 105.56 371.665 112.7Q400.365 130.06 415.905 135.38Q434.385 141.68 449.225 141.68Q457.765 141.68 468.685 139.44Q479.605 137.2 484.365 134.82L486.045 138.74Q480.585 141.54 469.315 144.2Q458.045 146.86 449.225 146.86Q440.405 146.86 430.535 144.69Q420.665 142.52 413.595 140.14Q406.525 137.76 396.025 132.58Q385.525 127.4 380.975 124.81Q376.425 122.22 366.205 116.34Q355.145 122.5 342.125 122.5Q320.845 122.5 306.915 107.52ZM311.885 38.29Q300.265 51.38 300.265 70.7Q300.265 90.02 311.955 103.18Q323.645 116.34 342.125 116.34Q352.205 116.34 360.325 112.28Q342.825 100.38 332.745 100.38Q326.445 100.38 322.525 102.62L320.285 98.56Q325.465 95.06 333.025 95.06Q340.585 95.06 348.215 98.7Q355.845 102.34 365.785 109.06Q374.465 102.9 379.295 92.82Q384.125 82.74 384.125 70.7Q384.125 51.38 372.435 38.29Q360.745 25.2 342.125 25.2Q323.505 25.2 311.885 38.29ZM420.298 120.82L420.298 18.5325L431.393 18.5325L431.393 114.66L429.205 114.66L429.205 112.472L477.453 112.472L477.453 123.007L420.298 123.007L420.298 120.82ZM424.673 120.82L422.485 120.82L422.485 118.632L475.265 118.632L475.265 120.82L473.078 120.82L473.078 114.66L475.265 114.66L475.265 116.847L427.018 116.847L427.018 20.72L429.205 20.72L429.205 22.9075L422.485 22.9075L422.485 20.72L424.673 20.72L424.673 120.82ZM422.485 120.82L422.485 20.72L429.205 20.72L429.205 114.66L475.265 114.66L475.265 120.82L422.485 120.82Z" clip-path="url(#clip_path_3)" fill="#FFFFFF" transform="translate(0 179.63)"/>
  </g>
</svg>