<svg width="3047" height="512" viewBox="0 0 3047 512" fill="none" xmlns="http://www.w3.org/2000/svg">
  <defs>
    <path id="path_1" d="M0 256C0 114.615 114.615 0 256 0C397.385 0 512 114.615 512 256C512 397.385 397.385 512 256 512C114.615 512 0 397.385 0 256Z"/>
    <radialGradient id="gradient_2" gradientUnits="userSpaceOnUse" cx="0" cy="0" r="1" gradientTransform="matrix(0 256 -256 0 256 256)">
      <stop offset="0" stop-color="#6B5539" stop-opacity="0.6"/>
      <stop offset="1" stop-color="#000000"/>
    </radialGradient>
    <clipPath id="clip_path_3">
      <rect width="512" height="512"/>
    </clipPath>
  </defs>
  <g>
    <g>
      <g transform="translate(7 0)">
        <use fill="#0F0F0F" fill-rule="evenodd"/>
        <use fill="url(#gradient_2)" fill-rule="evenodd"/>
        <path d="M256 0C114.615 0 0 114.615 0 256C0 397.385 114.615 512 256 512C397.385 512 512 397.385 512 256C512 114.615 397.385 0 256 0ZM27.4858 352.53Q7.99998 306.461 7.99997 256Q8 205.539 27.4858 159.47Q46.3094 114.966 80.6375 80.6375Q114.966 46.3093 159.47 27.4858Q205.539 7.99997 256 7.99997Q306.461 8 352.53 27.4858Q397.034 46.3094 431.362 80.6375Q465.691 114.966 484.514 159.47Q504 205.539 504 256Q504 306.461 484.514 352.53Q465.691 397.034 431.362 431.362Q397.034 465.691 352.53 484.514Q306.461 504 256 504Q205.539 504 159.47 484.514Q114.966 465.69 80.6375 431.362Q46.3093 397.034 27.4858 352.53Z" fill="#B8963E" fill-rule="evenodd"/>
      </g>
      <path d="M99.505 117.827L94.2618 117.827L64.4432 45.6351Q61.9026 39.7075 60.3363 35.1511L62.405 34.44L64.5738 34.7254L63.1738 45.3654L51.4059 123.007L40.0904 123.007L57.3264 17.6925L64.5578 17.6925L96.3413 93.2316L94.325 94.08L96.3127 93.1667Q98.7551 98.4825 100.198 103.246L98.105 103.88L95.9946 103.304Q96.4675 101.57 100.475 93.269L135.915 17.6925L142.967 17.6925L158.888 123.007L147.449 123.007L136.26 45.111Q135.117 37.8305 135.117 34.02L137.305 34.02L138.852 35.5668Q139.05 35.3689 139.054 35.3589Q138.921 35.6404 138.698 36.1829Q138.199 37.3934 137 40.1441L134.54 45.8371L100.897 117.827L99.505 117.827ZM99.505 113.452L99.505 115.64L97.5232 114.714L130.563 44.0139L132.545 44.94L130.537 44.0723L132.99 38.3959Q134.171 35.6868 134.652 34.5171Q135.309 32.9226 135.758 32.4732L139.492 28.7389L139.492 34.02Q139.492 37.4895 140.59 44.489L151.51 120.509L149.345 120.82L149.345 118.632L156.345 118.632L156.345 120.82L154.182 121.147L138.922 20.207L141.085 19.88L141.085 22.0675L137.305 22.0675L137.305 19.88L139.286 20.8087L104.415 95.171Q100.582 103.11 100.215 104.456L98.2156 111.788L96.0115 104.514Q94.6548 100.037 92.3373 94.9933L92.3224 94.9611L61.0887 20.7284L63.105 19.88L63.105 22.0675L59.185 22.0675L59.185 19.88L61.3438 20.2333L44.8238 121.173L42.665 120.82L42.665 118.632L49.525 118.632L49.525 120.82L47.3622 120.492L58.8362 44.7946L60.2362 34.1546L64.4737 33.7289Q65.9874 38.1326 68.4868 43.9649L97.7468 114.805L95.725 115.64L95.725 113.452L99.505 113.452ZM99.505 115.64L95.725 115.64L66.465 44.8Q63.945 38.92 62.405 34.44L61.005 45.08L49.525 120.82L42.665 120.82L59.185 19.88L63.105 19.88L94.325 94.08Q96.705 99.26 98.105 103.88Q98.525 102.34 102.445 94.22L137.305 19.88L141.085 19.88L156.345 120.82L149.345 120.82L138.425 44.8Q137.305 37.66 137.305 34.02Q137.165 34.16 136.675 35.35Q136.185 36.54 134.995 39.27Q133.805 42 132.545 44.94L99.505 115.64ZM226.765 27.3875Q209.412 27.3875 198.445 39.8079Q187.372 52.3476 187.372 70.63Q187.372 88.8407 199.9 101.501Q212.418 114.152 230.405 114.152Q246.209 114.152 256.586 109.84L257.425 111.86L255.238 111.86L255.238 68.5125L266.332 68.5125L266.332 116.157L265.299 116.799Q252.589 124.688 230.055 124.688Q207.242 124.688 191.482 109Q175.717 93.3091 175.717 70.63Q175.717 48.0067 190.015 32.4688Q204.385 16.8525 226.765 16.8525Q243.912 16.8525 261.462 22.5597L263.541 23.2361L260.384 32.9497L258.336 32.3352Q241.844 27.3875 226.765 27.3875ZM226.765 23.0125Q242.486 23.0125 259.594 28.1448L258.965 30.24L256.885 29.5639L258.705 23.9639L260.785 24.64L260.108 26.7203Q243.218 21.2275 226.765 21.2275Q206.305 21.2275 193.235 35.4312Q180.092 49.7133 180.092 70.63Q180.092 91.491 194.568 105.9Q209.048 120.313 230.055 120.313Q251.341 120.313 262.991 113.081L264.145 114.94L261.957 114.94L261.957 70.7L264.145 70.7L264.145 72.8875L257.425 72.8875L257.425 70.7L259.612 70.7L259.612 113.32L258.264 113.88Q247.081 118.527 230.405 118.527Q210.592 118.528 196.79 104.579Q182.997 90.6393 182.997 70.63Q182.997 50.6925 195.165 36.9121Q207.438 23.0125 226.765 23.0125ZM226.765 25.2Q208.425 25.2 196.805 38.36Q185.185 51.52 185.185 70.63Q185.185 89.74 198.345 103.04Q211.505 116.34 230.405 116.34Q246.645 116.34 257.425 111.86L257.425 70.7L264.145 70.7L264.145 114.94Q251.965 122.5 230.055 122.5Q208.145 122.5 193.025 107.45Q177.905 92.4 177.905 70.63Q177.905 48.86 191.625 33.95Q205.345 19.04 226.765 19.04Q243.565 19.04 260.785 24.64L258.965 30.24Q242.165 25.2 226.765 25.2ZM305.313 109.01Q290.797 93.3999 290.797 70.7Q290.797 47.9971 305.317 32.4566Q319.895 16.8525 342.125 16.8525Q364.352 16.8525 379 32.4526Q393.593 47.994 393.592 70.7Q393.592 84.0757 388.129 95.5129Q382.654 106.973 373.003 114.431L371.665 112.7L372.797 110.828Q401.296 128.067 416.613 133.31Q434.748 139.492 449.225 139.492Q457.543 139.492 468.245 137.297Q478.884 135.115 483.387 132.863L485.462 131.826L488.86 139.755L487.043 140.686Q481.346 143.608 469.818 146.329Q458.3 149.048 449.225 149.048Q440.167 149.048 430.065 146.826Q420.08 144.631 412.897 142.213Q405.688 139.786 395.057 134.542Q384.499 129.333 379.893 126.711L365.117 118.238L366.205 116.34L367.269 118.251Q355.713 124.688 342.125 124.688Q319.892 124.688 305.313 109.01ZM308.517 106.03Q321.798 120.313 342.125 120.313Q354.577 120.313 365.141 114.429L366.221 113.827L382.057 122.909Q386.551 125.467 396.993 130.618Q407.362 135.734 414.293 138.067Q421.251 140.409 431.005 142.554Q440.643 144.673 449.225 144.673Q457.79 144.673 468.813 142.071Q479.824 139.472 485.047 136.794L486.045 138.74L484.034 139.602L482.354 135.682L484.365 134.82L485.343 136.777Q480.326 139.285 469.125 141.583Q457.987 143.867 449.225 143.867Q434.022 143.867 415.197 137.45Q399.434 132.053 370.533 114.572L367.802 112.92L370.327 110.969Q379.156 104.147 384.181 93.6271Q389.217 83.0844 389.217 70.7Q389.218 49.7261 375.81 35.4474Q362.458 21.2275 342.125 21.2275Q321.795 21.2275 308.513 35.4434Q295.172 49.7228 295.172 70.7Q295.172 91.6801 308.517 106.03ZM313.521 39.7422Q302.452 52.2109 302.452 70.7Q302.453 89.1887 313.59 101.727Q324.628 114.152 342.125 114.152Q351.689 114.152 359.347 110.323L360.325 112.28L359.095 114.089Q342.152 102.567 332.745 102.567Q327.026 102.567 323.61 104.519L321.682 105.621L317.404 97.8666L319.06 96.7475Q324.795 92.8725 333.025 92.8725Q341.08 92.8725 349.157 96.7257Q356.935 100.436 367.01 107.248L365.785 109.06L364.519 107.276Q372.737 101.444 377.322 91.8747Q381.937 82.243 381.938 70.7Q381.938 52.2146 370.803 39.7471Q359.766 27.3875 342.125 27.3875Q324.488 27.3875 313.521 39.7422ZM310.249 36.8378Q322.522 23.0126 342.125 23.0125Q361.724 23.0125 374.067 36.8329Q386.313 50.5454 386.313 70.7Q386.313 83.2371 381.268 93.7653Q376.193 104.356 367.051 110.844L365.815 111.721L364.56 110.872Q354.755 104.244 347.273 100.674Q340.09 97.2475 333.025 97.2475Q326.135 97.2475 321.51 100.373L320.285 98.56L322.2 97.5033L324.44 101.563L322.525 102.62L321.44 100.721Q325.864 98.1925 332.745 98.1925Q343.498 98.1925 361.555 110.471L364.639 112.568L361.303 114.237Q352.721 118.527 342.125 118.527Q322.662 118.527 310.32 104.633Q298.078 90.8513 298.077 70.7Q298.078 50.5492 310.249 36.8378ZM306.915 107.52Q292.985 92.54 292.985 70.7Q292.985 48.86 306.915 33.95Q320.845 19.04 342.125 19.04Q363.405 19.04 377.405 33.95Q391.405 48.86 391.405 70.7Q391.405 83.58 386.155 94.57Q380.905 105.56 371.665 112.7Q400.365 130.06 415.905 135.38Q434.385 141.68 449.225 141.68Q457.765 141.68 468.685 139.44Q479.605 137.2 484.365 134.82L486.045 138.74Q480.585 141.54 469.315 144.2Q458.045 146.86 449.225 146.86Q440.405 146.86 430.535 144.69Q420.665 142.52 413.595 140.14Q406.525 137.76 396.025 132.58Q385.525 127.4 380.975 124.81Q376.425 122.22 366.205 116.34Q355.145 122.5 342.125 122.5Q320.845 122.5 306.915 107.52ZM311.885 38.29Q300.265 51.38 300.265 70.7Q300.265 90.02 311.955 103.18Q323.645 116.34 342.125 116.34Q352.205 116.34 360.325 112.28Q342.825 100.38 332.745 100.38Q326.445 100.38 322.525 102.62L320.285 98.56Q325.465 95.06 333.025 95.06Q340.585 95.06 348.215 98.7Q355.845 102.34 365.785 109.06Q374.465 102.9 379.295 92.82Q384.125 82.74 384.125 70.7Q384.125 51.38 372.435 38.29Q360.745 25.2 342.125 25.2Q323.505 25.2 311.885 38.29ZM420.298 120.82L420.298 18.5325L431.393 18.5325L431.393 114.66L429.205 114.66L429.205 112.472L477.453 112.472L477.453 123.007L420.298 123.007L420.298 120.82ZM424.673 120.82L422.485 120.82L422.485 118.632L475.265 118.632L475.265 120.82L473.078 120.82L473.078 114.66L475.265 114.66L475.265 116.847L427.018 116.847L427.018 20.72L429.205 20.72L429.205 22.9075L422.485 22.9075L422.485 20.72L424.673 20.72L424.673 120.82ZM422.485 120.82L422.485 20.72L429.205 20.72L429.205 114.66L475.265 114.66L475.265 120.82L422.485 120.82Z" clip-path="url(#clip_path_3)" fill="#FFFFFF" transform="translate(0 179.63)"/>
    </g>
    <path d="M103.968 233.964Q142.857 233.964 166.199 213.078Q189.324 192.388 189.324 150.048Q189.324 107.638 162.945 82.7619Q136.453 57.78 97.344 57.78Q71.3044 57.78 52.1749 59.2075L51.84 54.72L56.34 54.72L56.34 236.16L51.84 236.16L52.3897 231.694Q70.8359 233.964 103.968 233.964ZM103.968 242.964Q70.2841 242.964 51.2903 240.626L47.34 240.14L47.34 50.5433L51.5051 50.2325Q70.9691 48.78 97.344 48.78Q140.027 48.78 169.119 76.2141Q198.324 103.754 198.324 150.048Q198.324 196.412 172.201 219.786Q146.295 242.964 103.968 242.964ZM97.344 36.108Q146.624 36.108 179.885 66.8219Q213.3 97.6782 213.3 150.336Q213.3 176.867 204.747 197.425Q196.107 218.191 180.837 230.712Q149.907 255.636 103.968 255.636Q74.687 255.636 37.6307 252.451L33.516 252.098L33.516 38.4222L37.7079 38.1345Q67.2379 36.108 97.344 36.108ZM97.344 45.108Q67.5465 45.108 38.3241 47.1134L38.016 42.624L42.516 42.624L42.516 247.968L38.016 247.968L38.4013 243.485Q75.073 246.636 103.968 246.636Q146.733 246.636 175.131 223.752Q188.661 212.657 196.437 193.967Q204.3 175.069 204.3 150.336Q204.3 101.618 173.779 73.434Q143.104 45.108 97.344 45.108ZM103.968 238.464Q144.576 238.464 169.2 216.432Q193.824 194.4 193.824 150.048Q193.824 105.696 166.032 79.488Q138.24 53.28 97.344 53.28Q71.136 53.28 51.84 54.72L51.84 236.16Q70.56 238.464 103.968 238.464ZM97.344 40.608Q144.864 40.608 176.832 70.128Q208.8 99.648 208.8 150.336Q208.8 175.968 200.592 195.696Q192.384 215.424 177.984 227.232Q148.32 251.136 103.968 251.136Q74.88 251.136 38.016 247.968L38.016 42.624Q67.392 40.608 97.344 40.608ZM351.936 255.924Q309.999 255.924 281.6 226.62Q253.26 197.375 253.26 155.088Q253.26 112.801 281.6 83.5564Q309.998 54.252 351.936 54.252Q393.873 54.252 422.272 83.5564Q450.612 112.801 450.612 155.088Q450.612 197.375 422.272 226.62Q393.873 255.924 351.936 255.924ZM351.936 246.924Q390.063 246.924 415.808 220.356Q441.612 193.729 441.612 155.088Q441.612 116.447 415.808 89.8196Q390.063 63.252 351.936 63.252Q313.81 63.252 288.064 89.8196Q262.26 116.447 262.26 155.088Q262.26 193.729 288.064 220.356Q313.809 246.924 351.936 246.924ZM352.08 75.06Q319.329 75.06 297.767 98.1138Q276.084 121.296 276.084 155.088Q276.084 188.872 297.757 211.908Q319.321 234.828 352.08 234.828Q384.831 234.828 406.249 211.919Q427.788 188.88 427.788 155.088Q427.788 121.288 406.24 98.1035Q384.823 75.06 352.08 75.06ZM352.08 66.06Q388.745 66.06 412.832 91.9765Q436.788 117.752 436.788 155.088Q436.788 192.432 412.823 218.065Q388.737 243.828 352.08 243.828Q315.431 243.828 291.203 218.076Q267.084 192.44 267.084 155.088Q267.084 117.743 291.193 91.9661Q315.423 66.06 352.08 66.06ZM351.936 251.424Q311.904 251.424 284.832 223.488Q257.76 195.552 257.76 155.088Q257.76 114.624 284.832 86.688Q311.904 58.752 351.936 58.752Q391.968 58.752 419.04 86.688Q446.112 114.624 446.112 155.088Q446.112 195.552 419.04 223.488Q391.968 251.424 351.936 251.424ZM352.08 70.56Q317.376 70.56 294.48 95.04Q271.584 119.52 271.584 155.088Q271.584 190.656 294.48 214.992Q317.376 239.328 352.08 239.328Q386.784 239.328 409.536 214.992Q432.288 190.656 432.288 155.088Q432.288 119.52 409.536 95.04Q386.784 70.56 352.08 70.56ZM651.351 243.254Q628.726 255.924 589.104 255.924Q548.865 255.924 518.332 227.045Q487.692 198.066 487.692 155.088Q487.692 112.29 514.371 83.3499Q541.196 54.2519 583.488 54.252Q616.743 54.252 648.523 64.5512L652.772 65.9281L646.626 85.3907L642.357 84.077Q613.051 75.06 581.76 75.06Q551.806 75.06 531.404 97.8942Q510.804 120.95 510.804 154.512Q510.804 187.905 534.658 211.351Q558.545 234.828 589.824 234.828Q622.035 234.828 643.086 225.965L647.071 224.287L655.003 241.209L651.351 243.254ZM646.953 235.402L649.152 239.328L645.077 241.238L640.757 232.022L644.832 230.112L646.578 234.259Q623.853 243.828 589.824 243.828Q554.863 243.828 528.35 217.769Q501.804 191.679 501.804 154.512Q501.804 117.515 524.692 91.8977Q547.778 66.06 581.76 66.06Q614.405 66.06 645.003 75.475L643.68 79.776L639.389 78.4209L642.845 67.4769L647.136 68.832L645.749 73.1128Q615.321 63.2519 583.488 63.252Q545.14 63.2519 520.989 89.4501Q496.692 115.806 496.692 155.088Q496.692 194.19 524.516 220.507Q552.447 246.924 589.104 246.924Q626.378 246.924 646.953 235.402ZM649.152 239.328Q627.552 251.424 589.104 251.424Q550.656 251.424 521.424 223.776Q492.192 196.128 492.192 155.088Q492.192 114.048 517.68 86.4Q543.168 58.752 583.488 58.752Q616.032 58.752 647.136 68.832L643.68 79.776Q613.728 70.56 581.76 70.56Q549.792 70.56 528.048 94.896Q506.304 119.232 506.304 154.512Q506.304 189.792 531.504 214.56Q556.704 239.328 589.824 239.328Q622.944 239.328 644.832 230.112L649.152 239.328ZM832.857 232.177Q812.502 255.924 771.552 255.924Q730.602 255.924 710.247 232.177Q690.156 208.737 690.156 167.904L690.156 57.132L712.404 57.132L712.404 167.904Q712.404 202.051 727.182 218.701Q741.751 235.116 771.552 235.116Q830.7 235.116 830.7 167.904L830.7 57.132L852.948 57.132L852.948 167.904Q852.948 208.737 832.857 232.177L832.857 232.177ZM826.023 226.319Q843.948 205.407 843.948 167.904L843.948 61.632L848.448 61.632L848.448 66.132L835.2 66.132L835.2 61.632L839.7 61.632L839.7 167.904Q839.7 244.116 771.552 244.116Q737.705 244.116 720.45 224.675Q703.404 205.469 703.404 167.904L703.404 61.632L707.904 61.632L707.904 66.132L694.656 66.132L694.656 61.632L699.156 61.632L699.156 167.904Q699.156 205.407 717.081 226.319Q734.742 246.924 771.552 246.924Q808.362 246.924 826.023 226.319ZM829.44 229.248Q810.432 251.424 771.552 251.424Q732.672 251.424 713.664 229.248Q694.656 207.072 694.656 167.904L694.656 61.632L707.904 61.632L707.904 167.904Q707.904 239.616 771.552 239.616Q835.2 239.616 835.2 167.904L835.2 61.632L848.448 61.632L848.448 167.904Q848.448 207.072 829.44 229.248ZM1002.53 243.252L991.738 243.252L936.159 108.273L940.32 106.56L936.208 108.388Q932.664 100.413 929.139 89.839L933.408 88.416L937.908 88.416Q937.908 89.0396 937.426 92.2515Q937.004 95.0687 936.435 99.7575Q935.843 104.642 935.243 107.941L930.816 107.136L935.264 107.815L913.081 253.044L890.967 253.044L922.956 55.98L937.546 55.98L996.882 196.683Q1004.15 214.845 1004.15 216.576L999.648 216.576L995.379 215.153Q997.489 208.823 1003.38 196.747L1069.36 55.98L1083.87 55.98L1113.75 253.044L1090.79 253.044L1069.79 107.201Q1067.72 92.7678 1067.72 87.84L1072.22 87.84L1076.34 89.6502L1067.99 108.658L1005.4 243.252L1002.53 243.252ZM1002.53 234.252L1002.53 238.752L998.448 236.854L1059.75 105.038L1068.1 86.0297L1076.72 87.84Q1076.72 92.1283 1078.69 105.919L1099.14 247.903L1094.69 248.544L1094.69 244.044L1108.51 244.044L1108.51 248.544L1104.06 249.219L1075.55 61.1545L1080 60.48L1080 64.98L1072.22 64.98L1072.22 60.48L1076.3 62.3899L1011.47 200.693Q1005.84 212.233 1003.92 217.999L995.148 216.576L994.966 216.596Q994.555 215.417 993.715 213.21Q992 208.709 988.59 200.181L930.414 62.2285L934.56 60.48L934.56 64.98L926.784 64.98L926.784 60.48L931.226 61.201L900.698 249.265L896.256 248.544L896.256 244.044L909.216 244.044L909.216 248.544L904.768 247.865L926.377 106.394L926.389 106.331Q926.941 103.294 927.501 98.6745Q928.084 93.8594 928.526 90.9164Q928.737 89.5063 928.841 88.744L928.908 88.416L937.677 86.993Q941.064 97.1548 944.432 104.732L944.457 104.789L998.913 237.039L994.752 238.752L994.752 234.252L1002.53 234.252ZM1002.53 238.752L994.752 238.752L940.32 106.56Q936.864 98.784 933.408 88.416Q933.408 88.704 932.976 91.584Q932.544 94.464 931.968 99.216Q931.392 103.968 930.816 107.136L909.216 248.544L896.256 248.544L926.784 60.48L934.56 60.48L992.736 198.432Q999.648 215.712 999.648 216.576Q1001.66 210.528 1007.42 198.72L1072.22 60.48L1080 60.48L1108.51 248.544L1094.69 248.544L1074.24 106.56Q1072.22 92.448 1072.22 87.84L1063.87 106.848L1002.53 238.752ZM1153.55 248.544L1153.55 57.132L1249.81 57.132L1249.81 77.652L1171.3 77.652L1171.3 73.152L1175.8 73.152L1175.8 141.12L1171.3 141.12L1171.3 136.62L1242.61 136.62L1242.61 156.852L1171.3 156.852L1171.3 152.352L1175.8 152.352L1175.8 236.448L1171.3 236.448L1171.3 231.948L1252.69 231.948L1252.69 253.044L1153.55 253.044L1153.55 248.544ZM1162.55 248.544L1158.05 248.544L1158.05 244.044L1248.19 244.044L1248.19 248.544L1243.69 248.544L1243.69 236.448L1248.19 236.448L1248.19 240.948L1166.8 240.948L1166.8 147.852L1238.11 147.852L1238.11 152.352L1233.61 152.352L1233.61 141.12L1238.11 141.12L1238.11 145.62L1166.8 145.62L1166.8 68.652L1245.31 68.652L1245.31 73.152L1240.81 73.152L1240.81 61.632L1245.31 61.632L1245.31 66.132L1158.05 66.132L1158.05 61.632L1162.55 61.632L1162.55 248.544ZM1158.05 248.544L1158.05 61.632L1245.31 61.632L1245.31 73.152L1171.3 73.152L1171.3 141.12L1238.11 141.12L1238.11 152.352L1171.3 152.352L1171.3 236.448L1248.19 236.448L1248.19 248.544L1158.05 248.544ZM1296.68 248.544L1296.68 55.98L1309.57 55.98L1433.6 198.648Q1440.31 206.227 1446.02 213.698Q1451.46 220.805 1451.53 220.882L1448.35 224.064L1443.87 224.438Q1443.28 217.339 1443.28 196.992L1443.28 57.132L1465.52 57.132L1465.52 254.196L1452.64 254.196L1326.26 109.178L1310.38 89.8312L1313.86 86.976L1318.33 86.5282Q1318.93 92.5116 1318.93 114.048L1318.93 253.044L1296.68 253.044L1296.68 248.544ZM1305.68 248.544L1301.18 248.544L1301.18 244.044L1314.43 244.044L1314.43 248.544L1309.93 248.544L1309.93 114.048Q1309.93 92.9605 1309.38 87.4237L1307.9 72.6265L1333.17 103.417L1329.7 106.272L1333.09 103.315L1458.08 246.739L1454.69 249.696L1454.69 245.196L1461.02 245.196L1461.02 249.696L1456.52 249.696L1456.52 61.632L1461.02 61.632L1461.02 66.132L1447.78 66.132L1447.78 61.632L1452.28 61.632L1452.28 196.992Q1452.28 216.965 1452.84 223.69L1453.86 235.933L1445.17 227.246Q1444.67 226.747 1438.87 219.166Q1433.36 211.949 1426.81 204.552L1304.12 63.4324L1307.52 60.48L1307.52 64.98L1301.18 64.98L1301.18 60.48L1305.68 60.48L1305.68 248.544ZM1301.18 248.544L1301.18 60.48L1307.52 60.48L1430.21 201.6Q1436.83 209.088 1442.45 216.432Q1448.06 223.776 1448.35 224.064Q1447.78 217.152 1447.78 196.992L1447.78 61.632L1461.02 61.632L1461.02 249.696L1454.69 249.696L1329.7 106.272L1313.86 86.976Q1314.43 92.736 1314.43 114.048L1314.43 248.544L1301.18 248.544ZM1563.55 77.94L1495.69 77.94L1495.69 57.132L1644.37 57.132L1644.37 77.94L1576.51 77.94L1576.51 73.44L1581.01 73.44L1581.01 253.044L1559.05 253.044L1559.05 73.44L1563.55 73.44L1563.55 77.94ZM1568.05 68.94L1568.05 248.544L1563.55 248.544L1563.55 244.044L1576.51 244.044L1576.51 248.544L1572.01 248.544L1572.01 68.94L1639.87 68.94L1639.87 73.44L1635.37 73.44L1635.37 61.632L1639.87 61.632L1639.87 66.132L1500.19 66.132L1500.19 61.632L1504.69 61.632L1504.69 73.44L1500.19 73.44L1500.19 68.94L1563.55 68.94L1568.05 68.94ZM1563.55 73.44L1500.19 73.44L1500.19 61.632L1639.87 61.632L1639.87 73.44L1576.51 73.44L1576.51 248.544L1563.55 248.544L1563.55 73.44ZM1674.56 185.463L1646.63 253.044L1623.33 253.044L1705.42 55.98L1719.18 55.98L1801.87 253.044L1777.42 253.044L1749.19 185.479L1753.34 183.744L1753.34 188.244L1670.4 188.244L1670.4 183.744L1674.56 185.463ZM1667.39 179.244L1756.34 179.244L1784.57 246.809L1780.42 248.544L1780.42 244.044L1795.1 244.044L1795.1 248.544L1790.95 250.285L1712.04 62.2211L1716.19 60.48L1716.19 64.98L1708.42 64.98L1708.42 60.48L1712.57 62.2103L1634.23 250.274L1630.08 248.544L1630.08 244.044L1643.62 244.044L1643.62 248.544L1639.46 246.825L1666.24 182.025L1667.39 179.244ZM1715.85 83.215Q1711.49 96.3005 1707.99 105.063L1679.16 174.243L1675.01 172.512L1675.01 168.012L1748.74 168.012L1748.74 172.512L1744.58 174.234L1716.07 105.402Q1709.39 89.1511 1707.34 83.2785L1711.58 81.792L1715.85 83.215ZM1707.31 80.369L1711.48 67.8733L1715.83 80.3054Q1717.81 85.9528 1724.38 101.958L1755.47 177.012L1668.26 177.012L1699.63 101.721Q1703.04 93.2035 1707.31 80.369ZM1670.4 183.744L1643.62 248.544L1630.08 248.544L1708.42 60.48L1716.19 60.48L1795.1 248.544L1780.42 248.544L1753.34 183.744L1670.4 183.744ZM1711.58 81.792Q1707.26 94.752 1703.81 103.392L1675.01 172.512L1748.74 172.512L1720.22 103.68Q1713.6 87.552 1711.58 81.792ZM1848.67 77.94L1780.81 77.94L1780.81 57.132L1929.49 57.132L1929.49 77.94L1861.63 77.94L1861.63 73.44L1866.13 73.44L1866.13 253.044L1844.17 253.044L1844.17 73.44L1848.67 73.44L1848.67 77.94ZM1853.17 68.94L1853.17 248.544L1848.67 248.544L1848.67 244.044L1861.63 244.044L1861.63 248.544L1857.13 248.544L1857.13 68.94L1924.99 68.94L1924.99 73.44L1920.49 73.44L1920.49 61.632L1924.99 61.632L1924.99 66.132L1785.31 66.132L1785.31 61.632L1789.81 61.632L1789.81 73.44L1785.31 73.44L1785.31 68.94L1848.67 68.94L1853.17 68.94ZM1848.67 73.44L1785.31 73.44L1785.31 61.632L1924.99 61.632L1924.99 73.44L1861.63 73.44L1861.63 248.544L1848.67 248.544L1848.67 73.44ZM1959.66 57.132L1981.91 57.132L1981.91 253.044L1959.66 253.044L1959.66 57.132ZM2129.18 255.924Q2087.25 255.924 2058.85 226.62Q2030.51 197.375 2030.51 155.088Q2030.51 112.801 2058.85 83.5564Q2087.25 54.252 2129.18 54.252Q2171.12 54.252 2199.52 83.5564Q2227.86 112.801 2227.86 155.088Q2227.86 197.375 2199.52 226.62Q2171.12 255.924 2129.18 255.924ZM2129.18 246.924Q2167.31 246.924 2193.06 220.356Q2218.86 193.729 2218.86 155.088Q2218.86 116.447 2193.06 89.8196Q2167.31 63.252 2129.18 63.252Q2091.06 63.252 2065.31 89.8196Q2039.51 116.447 2039.51 155.088Q2039.51 193.729 2065.31 220.356Q2091.06 246.924 2129.18 246.924ZM2129.33 75.06Q2096.58 75.06 2075.01 98.1138Q2053.33 121.296 2053.33 155.088Q2053.33 188.872 2075.01 211.908Q2096.57 234.828 2129.33 234.828Q2162.08 234.828 2183.5 211.919Q2205.04 188.88 2205.04 155.088Q2205.04 121.288 2183.49 98.1035Q2162.07 75.06 2129.33 75.06ZM2129.33 66.06Q2165.99 66.06 2190.08 91.9765Q2214.04 117.752 2214.04 155.088Q2214.04 192.432 2190.07 218.065Q2165.99 243.828 2129.33 243.828Q2092.68 243.828 2068.45 218.076Q2044.33 192.44 2044.33 155.088Q2044.33 117.743 2068.44 91.9661Q2092.67 66.06 2129.33 66.06ZM2129.18 251.424Q2089.15 251.424 2062.08 223.488Q2035.01 195.552 2035.01 155.088Q2035.01 114.624 2062.08 86.688Q2089.15 58.752 2129.18 58.752Q2169.22 58.752 2196.29 86.688Q2223.36 114.624 2223.36 155.088Q2223.36 195.552 2196.29 223.488Q2169.22 251.424 2129.18 251.424ZM2129.33 70.56Q2094.62 70.56 2071.73 95.04Q2048.83 119.52 2048.83 155.088Q2048.83 190.656 2071.73 214.992Q2094.62 239.328 2129.33 239.328Q2164.03 239.328 2186.78 214.992Q2209.54 190.656 2209.54 155.088Q2209.54 119.52 2186.78 95.04Q2164.03 70.56 2129.33 70.56ZM2276.46 248.544L2276.46 55.98L2289.35 55.98L2413.38 198.648Q2420.08 206.227 2425.8 213.698Q2431.23 220.805 2431.31 220.882L2428.13 224.064L2423.64 224.438Q2423.05 217.339 2423.05 196.992L2423.05 57.132L2445.3 57.132L2445.3 254.196L2432.42 254.196L2306.04 109.178L2290.15 89.8312L2293.63 86.976L2298.11 86.5282Q2298.71 92.5116 2298.71 114.048L2298.71 253.044L2276.46 253.044L2276.46 248.544ZM2285.46 248.544L2280.96 248.544L2280.96 244.044L2294.21 244.044L2294.21 248.544L2289.71 248.544L2289.71 114.048Q2289.71 92.9605 2289.15 87.4237L2287.67 72.6265L2312.95 103.417L2309.47 106.272L2312.86 103.315L2437.86 246.739L2434.46 249.696L2434.46 245.196L2440.8 245.196L2440.8 249.696L2436.3 249.696L2436.3 61.632L2440.8 61.632L2440.8 66.132L2427.55 66.132L2427.55 61.632L2432.05 61.632L2432.05 196.992Q2432.05 216.965 2432.61 223.69L2433.63 235.933L2424.95 227.246Q2424.45 226.747 2418.65 219.166Q2413.13 211.949 2406.59 204.552L2283.9 63.4324L2287.3 60.48L2287.3 64.98L2280.96 64.98L2280.96 60.48L2285.46 60.48L2285.46 248.544ZM2280.96 248.544L2280.96 60.48L2287.3 60.48L2409.98 201.6Q2416.61 209.088 2422.22 216.432Q2427.84 223.776 2428.13 224.064Q2427.55 217.152 2427.55 196.992L2427.55 61.632L2440.8 61.632L2440.8 249.696L2434.46 249.696L2309.47 106.272L2293.63 86.976Q2294.21 92.736 2294.21 114.048L2294.21 248.544L2280.96 248.544Z" fill="#FFFFFF" transform="translate(571 108.792)"/>
  </g>
</svg>